<?xml version="1.0" encoding="UTF-8"?>
<svg id="Layer_1" data-name="Layer 1" xmlns="http://www.w3.org/2000/svg" viewBox="0 0 45 43.08">
  <defs>
    <style>
      .cls-1 {
        fill: #cea3ff;
      }
    </style>
  </defs>
  <path class="cls-1" d="m8.97,7.7L.78,12.59c-.48.29-.78.81-.78,1.38v29.12h11.39V9.08c0-1.24-1.36-2.01-2.42-1.38Z"/>
  <path class="cls-1" d="m45,25.09c0-3.54-2.37-3.93-5.01-3.29-2.64.65-12.19,2.74-12.2,2.74,0,0,0,0,0,0-2.21.35-3.67-2.81-.89-4.32l13.3-6.79s1.91-.69,2.28-2.55c.69-3.41-2.09-5.29-6.46-4.26-4.92,1.16-7.96,2.68-7.89-.18V1.88c0-1.46-1.59-2.36-2.84-1.61l-7.63,4.56c-.57.34-.92.95-.92,1.61v4.53c0,1.39,1.27,2.44,2.64,2.17l8.75-1.72,3.48-.63s0,0,0,0h.02s0,0,0,0c.14-.03.29-.04.44-.04,1.27,0,2.3,1,2.3,2.23,0,.89-.53,1.65-1.31,2.01h0s-.92.51-.92.51c-.12.08-.24.15-.37.22l-13.25,6.77c-1.1.56-1.79,1.69-1.79,2.92,0,2.19,2.09,4.63,6.32,3.73,4.23-.9,4.24-.87,6.76-1.51,2.55-.64,3.79.74,3.79,3.83v11.62h11.39v-11.9s0,0,0,0v-6.09Z"/>
</svg>